inDegrees=no
num_controls=7
num_derivatives=13
num_iterations=270
num_multipliers=7
num_parameters=0
num_slacks=7
num_states=26
objective=5.679370
objective_accelerations=0.601069
objective_balance=0.124252
objective_effort=0.399466
objective_height=4.452247
objective_ligament=0.102337
solver_duration=3081.891795
status=Solve_Succeeded
success=true
DataType=double
version=3
OpenSimVersion=4.4-2022-07-23-0e9fedc
endheader
time	/jointset/ground_pelvis/pelvis_tilt/value	/jointset/ground_pelvis/pelvis_tx/value	/jointset/ground_pelvis/pelvis_ty/value	/jointset/hip_l/hip_flexion_l/value	/jointset/hip_l/hip_adduction_l/value	/jointset/hip_l/hip_rotation_l/value	/jointset/back/lumbar_extension/value	/jointset/patellofemoral_l/patellar_flexion_l/value	/jointset/knee_l/knee_flexion_l/value	/jointset/knee_l/knee_adduction_l/value	/jointset/knee_l/knee_rotation_l/value	/jointset/ankle_l/ankle_angle_l/value	/jointset/subtalar_l/subtalar_angle_l/value	/jointset/ground_pelvis/pelvis_tilt/speed	/jointset/ground_pelvis/pelvis_tx/speed	/jointset/ground_pelvis/pelvis_ty/speed	/jointset/hip_l/hip_flexion_l/speed	/jointset/hip_l/hip_adduction_l/speed	/jointset/hip_l/hip_rotation_l/speed	/jointset/back/lumbar_extension/speed	/jointset/patellofemoral_l/patellar_flexion_l/speed	/jointset/knee_l/knee_flexion_l/speed	/jointset/knee_l/knee_adduction_l/speed	/jointset/knee_l/knee_rotation_l/speed	/jointset/ankle_l/ankle_angle_l/speed	/jointset/subtalar_l/subtalar_angle_l/speed	/forceset/tau_hip_flexion_l	/forceset/tau_hip_adduction_l	/forceset/tau_hip_rotation_l	/forceset/tau_knee_flexion_l	/forceset/tau_ankle_angle_l	/forceset/tau_subtalar_angle_l	/forceset/tau_lumbar_extension	lambda_cid13_p0	lambda_cid13_p1	lambda_cid13_p2	lambda_cid13_p3	lambda_cid13_p4	lambda_cid13_p5	lambda_cid14_p0	/jointset/ground_pelvis/pelvis_tilt/accel	/jointset/ground_pelvis/pelvis_tx/accel	/jointset/ground_pelvis/pelvis_ty/accel	/jointset/hip_l/hip_flexion_l/accel	/jointset/hip_l/hip_adduction_l/accel	/jointset/hip_l/hip_rotation_l/accel	/jointset/back/lumbar_extension/accel	/jointset/patellofemoral_l/patellar_flexion_l/accel	/jointset/knee_l/knee_flexion_l/accel	/jointset/knee_l/knee_adduction_l/accel	/jointset/knee_l/knee_rotation_l/accel	/jointset/ankle_l/ankle_angle_l/accel	/jointset/subtalar_l/subtalar_angle_l/accel	gamma_cid13_p0	gamma_cid13_p1	gamma_cid13_p2	gamma_cid13_p3	gamma_cid13_p4	gamma_cid13_p5	gamma_cid14_p0
1.5	-0.4008741842442907	-0.0322991565845954	0.7744495372349235	1.183051802345842	-0.3067782505749291	-0.02913143762886655	-0.3370144329479547	0.7291512054722684	0.7291512054722651	-0.1702772099330809	0.174532697705898	0.1205859029905086	-0.02941247077239813	0.6042985233610876	0.1744763773080071	0.4549057569202158	-2.12441499949623	0.01520682359995662	-0.6540245751903847	0.5752714014124314	-1.853496851623999	-1.853496851624011	0.01106113795877532	-3.515820312169811e-06	-0.4444563383353207	-0.0524547242803127	-0.2281267674645645	0.02792585913617775	-0.02134160251132932	-0.2001441706518764	0.06825815819832702	0.04661209456974494	0.2113725608513163	-16.24363959777525	-20.71214720488388	6.68351612100094	0.9752864001257737	-609.2405801487988	-59.23462499945825	-25.96015205771103	0.5292823108675222	0.5029509494807537	-0.3243968909019799	-1.355620367830538	0.601399918455734	-0.3690302436459208	1.600464783451593	-1.175020817347761	-1.175020817347762	-0.01915111064865055	-0.008234832290029385	-0.3377797350858691	0.5911502224713352	3.452052259255068e-07	8.965941843797161e-07	-1.699749525849447e-06	-1.181766246255625e-07	3.961988819802461e-07	3.991477695656204e-07	3.407652765162173e-07
1.51	-0.3948049925845035	-0.03052939447887174	0.7789815246386247	1.16174172230915	-0.306597310380759	-0.03568831400131622	-0.3311830874594332	0.7105594003169166	0.7105594003169159	-0.1701708627786455	0.1745326656446753	0.1161246124201297	-0.02990891708954986	0.6094575482361189	0.1794547674175654	0.4514006891224466	-2.137302359680021	0.02099780241835932	-0.6572672547862326	0.5909188000708943	-1.864599528579314	-1.864599528579311	0.01020518781700982	-4.518022795162478e-06	-0.4477259749727806	-0.04681729857314722	-0.2208846952961317	0.0271298416739412	-0.0212714095562417	-0.1987996101796481	0.07054307319459073	0.04601105659903955	0.2056479032133762	-15.31757348553497	-20.69759322074276	6.777519493938829	0.7564803213573478	-605.243430732664	-59.48658368302409	-27.05708073820527	0.4969156747307634	0.4920647384220846	-0.3771254962849702	-1.21044410202702	0.5705992822657773	-0.2890236384128693	1.535042973898413	-1.038269313778253	-1.03826931377604	-0.1192144457105656	0.004110389940463889	-0.3101715183733723	0.552683486191125	3.757224248736219e-07	9.7581767230944e-07	-1.823041415993098e-06	-1.287533702392575e-07	4.364350842950288e-07	4.616406124526239e-07	3.660305965453242e-07
1.52	-0.3886866700561841	-0.02871049213270675	0.783475748609934	1.140311738618944	-0.3063579299146582	-0.04227504453389634	-0.3251976348709562	0.6918644927561806	0.6918644927561829	-0.1700731546215816	0.1745326522222611	0.1116329023053168	-0.03034846020135953	0.6141246970675438	0.1843044253962729	0.4473530704418534	-2.14839573019876	0.02689487798609193	-0.6599954072164264	0.6060928214035483	-1.874117332700825	-1.874117332700807	0.009333338484441645	2.119414377200497e-07	-0.4505402472221332	-0.04107408321190291	-0.2136426231276998	0.02633382421170364	-0.02120121660115181	-0.1974550497074205	0.07282798819085405	0.04541001862833302	0.1999232455754355	-14.39249488063633	-20.6871422999845	6.877062617926649	0.5068888780594037	-601.2915372949407	-59.81927910161566	-28.15062208788298	0.4309071021462682	0.477204523310588	-0.4329070674668162	-0.9968224348202783	0.622619268321714	-0.2661248105150825	1.505789318289815	-0.8580462505870478	-0.858046250587048	-0.02233094880918418	-0.007088398946855761	-0.2467068574643741	0.6123081532871002	3.890851545085039e-07	1.076083611989409e-06	-1.883120612311922e-06	-1.208406490785657e-07	4.544162375610712e-07	5.261475837510085e-07	3.837799353445357e-07
1.53	-0.3825241025023721	-0.02684376542534909	0.7879268229522753	1.118779767641822	-0.3060592627332048	-0.04888649954285337	-0.3190630075329937	0.6730824489292254	0.6730824489292271	-0.1699845037452109	0.174532828764578	0.1071153666517758	-0.03073025926596253	0.6183018509436919	0.1890148639029335	0.4427758151071297	-2.15769318656643	0.03284242111997281	-0.6621838873377838	0.6207377287021781	-1.882024277330553	-1.882024277330536	0.008367969653314787	1.606327412003397e-05	-0.4528898992224787	-0.03528213806942595	-0.2062360477733275	0.02517159273207743	-0.02112688651933838	-0.1963827161844088	0.07541423051937168	0.04470409453920493	0.1940492681455221	-13.38036915649344	-20.64685952966004	6.972395254516001	0.2387958580170809	-597.4304284797499	-60.15799530153265	-29.22929950076447	0.3981191293851865	0.4640399825545245	-0.4829430606270038	-0.850361799293639	0.5815337955330817	-0.1780837441493864	1.429603812633685	-0.7170250193266612	-0.7170250193268977	-0.137869414198361	0.003456068661356508	-0.2175293504766201	0.5631946014063165	3.84221260498076e-07	1.198707156654013e-06	-1.876036321441869e-06	-9.328286947008815e-08	4.48751401212827e-07	5.927945664864854e-07	3.935435440869835e-07
